# File produced by Open Asset Import Library (http://www.assimp.sf.net)
# (assimp v3.1.179037358)

mtllib Chest.mtl

# 140 vertex positions
v  0.875494 0.177491 -0.421208
v  0 0.177491 -0.421208
v  0 1.06172 -0.421208
v  0.875494 1.06172 -0.421208
v  0 0.177491 0.415084
v  0.875494 0.177491 0.415084
v  0.875494 1.06172 0.415084
v  0.873964 1.06139 -0.419131
v  0.875804 0.184078 -0.444304
v  0.875804 0.184078 0.438179
v  0.873964 1.06139 0.413007
v  0 1.06172 0.415084
v  0.954475 0.00215203 0.44487
v  0.949303 0.184078 0.438179
v  0.878897 0.00215203 0.44487
v  0.949303 0.184078 -0.444304
v  0.934685 1.0324 -0.419131
v  0.934685 1.0324 0.413007
v  0.878897 0.00215203 -0.450994
v  0.954475 0.00215203 -0.450994
v  0.927776 0.292467 0.248783
v  0.927776 0.292467 -0.254908
v  0.927776 0.209224 -0.254908
v  0.927776 0.209224 0.248783
v  1.0609 0.212421 -0.240553
v  1.0609 0.289271 -0.240553
v  1.0609 0.289271 0.234429
v  1.0609 0.212421 0.234429
v  0 1.06404 -0.004545
v  0.080039 1.06404 -0.004545
v  0.052659 1.067 0.41651
v  0 1.067 0.416788
v  0.052659 1.18043 0.007236
v  0.052659 1.17242 -0.004545
v  0 1.17249 -0.004545
v  0 1.1805 0.007236
v  0.647348 1.12139 0.391475
v  0.654835 1.06404 0.409556
v  0.886704 1.06404 0.408624
v  0.853826 1.10014 0.389899
v  0.078991 1.12117 -0.403718
v  0.078991 1.06404 -0.424788
v  0 1.06404 -0.425066
v  0 1.12114 -0.404187
v  0.863175 1.12368 -0.001975
v  0.886704 1.06404 -0.004545
v  0.886704 1.06404 -0.421991
v  0.853826 1.10014 -0.398988
v  0.576231 1.06404 -0.423856
v  0.573407 1.06404 -0.004545
v  0.576231 1.16456 -0.004545
v  0.576231 1.12128 -0.402141
v  0.052659 1.12918 0.406409
v  0.052659 1.12117 0.394629
v  0.569179 1.12128 0.393052
v  0.573407 1.06404 0.410488
v  0.654835 1.06404 -0.004545
v  0.644645 1.16433 -0.004545
v  0.644645 1.06404 -0.422923
v  0.644645 1.12139 -0.400564
v  0.576249 1.17293 -0.013778
v  0.644663 1.1727 -0.013778
v  0.644734 1.12768 -0.415459
v  0 1.12915 0.406879
v  0 1.07501 0.435649
v  0.052659 1.07501 0.435372
v  0.052659 0.746646 0.420476
v  0.052659 0.758914 0.433688
v  0 0.759039 0.43393
v  0 0.746771 0.420718
v  0.644781 1.06579 -0.441575
v  0.576366 1.06579 -0.442507
v  0.576321 1.1275 -0.417133
v  0.576538 0.912995 -0.434496
v  0.644952 0.912422 -0.433806
v  0.644817 0.89968 -0.421308
v  0.576402 0.900253 -0.421997
v  -0.875494 0.177491 -0.421208
v  -0.875494 1.06172 -0.421208
v  -0.875494 0.177491 0.415084
v  -0.875494 1.06172 0.415084
v  -0.875804 0.184078 0.438179
v  -0.875804 0.184078 -0.444304
v  -0.873964 1.06139 -0.419131
v  -0.873964 1.06139 0.413007
v  -0.949303 0.184078 0.438179
v  -0.954475 0.00215203 0.44487
v  -0.878897 0.00215203 0.44487
v  -0.934686 1.0324 -0.419131
v  -0.949303 0.184078 -0.444304
v  -0.934686 1.0324 0.413007
v  -0.878897 0.00215203 -0.450994
v  -0.954475 0.00215203 -0.450994
v  -0.927776 0.209224 -0.254908
v  -0.927776 0.292467 -0.254908
v  -0.927776 0.292467 0.248783
v  -0.927776 0.209224 0.248783
v  -1.0609 0.289271 0.234429
v  -1.0609 0.289271 -0.240553
v  -1.0609 0.212421 -0.240553
v  -1.0609 0.212421 0.234429
v  -0.052659 1.067 0.41651
v  -0.080039 1.06404 -0.004545
v  -0.052659 1.17242 -0.004545
v  -0.052659 1.18043 0.007236
v  -0.886704 1.06404 0.408624
v  -0.654835 1.06404 0.409556
v  -0.647348 1.12139 0.391475
v  -0.853826 1.10014 0.389899
v  -0.078991 1.06404 -0.424788
v  -0.078991 1.12117 -0.403718
v  -0.886704 1.06404 -0.421991
v  -0.886704 1.06404 -0.004545
v  -0.863175 1.12368 -0.001975
v  -0.853826 1.10014 -0.398988
v  -0.573407 1.06404 -0.004545
v  -0.576231 1.06404 -0.423856
v  -0.576231 1.12128 -0.402141
v  -0.576231 1.16456 -0.004545
v  -0.052659 1.12117 0.394629
v  -0.052659 1.12918 0.406409
v  -0.569179 1.12128 0.393052
v  -0.573407 1.06404 0.410488
v  -0.654835 1.06404 -0.004545
v  -0.644645 1.16433 -0.004545
v  -0.644645 1.06404 -0.422923
v  -0.644645 1.12139 -0.400564
v  -0.576249 1.17293 -0.013778
v  -0.644663 1.1727 -0.013778
v  -0.644734 1.12768 -0.415459
v  -0.052659 1.07501 0.435372
v  -0.052659 0.746646 0.420476
v  -0.052659 0.758914 0.433688
v  -0.576366 1.06579 -0.442507
v  -0.644781 1.06579 -0.441575
v  -0.576321 1.1275 -0.417133
v  -0.576538 0.912995 -0.434496
v  -0.644952 0.912422 -0.433806
v  -0.576402 0.900253 -0.421997
v  -0.644817 0.89968 -0.421308

# 206 UV coordinates
vt 0.40805 0.58476 0
vt 0.40805 0.397464 0
vt 0.597215 0.397464 0
vt 0.597215 0.58476 0
vt 0.22914 0.397464 0
vt 0.22914 0.58476 0
vt 0.40805 0.773925 0
vt 0.22914 0.773925 0
vt 0.965876 0.569232 0
vt 0.970632 0.733649 0
vt 0.805245 0.733687 0
vt 0.809925 0.569269 0
vt 0.776125 0.58476 0
vt 0.776125 0.397464 0
vt 0.039975 0.58476 0
vt 0.039975 0.397464 0
vt 0.817887 0.781318 0
vt 0.805639 0.820006 0
vt 0.787498 0.817966 0
vt 0.803999 0.767787 0
vt 0.97274 0.815122 0
vt 0.959807 0.95679 0
vt 0.83179 0.971262 0
vt 0.823919 0.986025 0
vt 0.971893 0.767748 0
vt 0.989137 0.812286 0
vt 0.959398 0.784609 0
vt 0.968146 0.967413 0
vt 0.634736 0.173191 0
vt 0.543129 0.180475 0
vt 0.541925 0.165336 0
vt 0.633532 0.158051 0
vt 0.54261 0.14091 0
vt 0.541499 0.126933 0
vt 0.627884 0.120063 0
vt 0.628996 0.13404 0
vt 0.443399 0.124399 0
vt 0.436399 0.147811 0
vt 0.421957 0.143114 0
vt 0.430066 0.120063 0
vt 0.526758 0.164548 0
vt 0.528608 0.140182 0
vt 0.13441 0.794264 0
vt 0.134251 0.777673 0
vt 0.221588 0.78251 0
vt 0.221722 0.793424 0
vt 0.505818 0.781374 0
vt 0.508709 0.779718 0
vt 0.510571 0.792507 0
vt 0.50694 0.792506 0
vt 0.433774 0.653931 0
vt 0.421719 0.650485 0
vt 0.431836 0.60455 0
vt 0.437858 0.613666 0
vt 0.596434 0.776456 0
vt 0.609047 0.776524 0
vt 0.608971 0.792561 0
vt 0.596553 0.792554 0
vt 0.514295 0.612012 0
vt 0.514548 0.598832 0
vt 0.594548 0.602355 0
vt 0.589039 0.611348 0
vt 0.04724 0.795104 0
vt 0.04714 0.778729 0
vt 0.046342 0.675654 0
vt 0.133266 0.675403 0
vt 0.516558 0.673355 0
vt 0.599081 0.668593 0
vt 0.611645 0.671925 0
vt 0.424213 0.782768 0
vt 0.425734 0.780387 0
vt 0.43231 0.669278 0
vt 0.219299 0.674575 0
vt 0.133104 0.658523 0
vt 0.132641 0.610459 0
vt 0.218287 0.609635 0
vt 0.218943 0.657697 0
vt 0.516189 0.656561 0
vt 0.609299 0.646606 0
vt 0.596871 0.652224 0
vt 0.519624 0.671532 0
vt 0.518692 0.657931 0
vt 0.599328 0.654067 0
vt 0.046398 0.66147 0
vt 0.046109 0.611292 0
vt 0.413577 0.777128 0
vt 0.419881 0.667438 0
vt 0.423678 0.79246 0
vt 0.411925 0.792454 0
vt 0.412581 0.780648 0
vt 0.288001 0.781869 0
vt 0.219938 0.778596 0
vt 0.285465 0.779123 0
vt 0.341476 0.792415 0
vt 0.337419 0.792413 0
vt 0.337383 0.78056 0
vt 0.34144 0.780568 0
vt 0.288081 0.792785 0
vt 0.61232 0.650395 0
vt 0.613662 0.667964 0
vt 0.601328 0.666478 0
vt 0.652944 0.664892 0
vt 0.651747 0.647313 0
vt 0.656331 0.646976 0
vt 0.657529 0.664555 0
vt 0.015006 0.658743 0
vt 0.04682 0.65761 0
vt 0.012326 0.661294 0
vt 0.012387 0.675477 0
vt 0.046729 0.679518 0
vt 0.015045 0.678052 0
vt 0.40805 0.210168 0
vt 0.597215 0.210168 0
vt 0.22914 0.210168 0
vt 0.40805 0.021002 0
vt 0.22914 0.021002 0
vt 0.812234 0.385484 0
vt 0.977098 0.381535 0
vt 0.976321 0.545545 0
vt 0.820862 0.549269 0
vt 0.776125 0.210168 0
vt 0.039975 0.210168 0
vt 0.781526 0.305782 0
vt 0.800183 0.294535 0
vt 0.821811 0.33717 0
vt 0.81017 0.351522 0
vt 0.973108 0.167291 0
vt 0.978644 0.300503 0
vt 0.853651 0.143623 0
vt 0.784245 0.288294 0
vt 0.847949 0.129115 0
vt 0.994128 0.303644 0
vt 0.977533 0.347513 0
vt 0.96515 0.330967 0
vt 0.981424 0.157928 0
vt 0.56212 0.028826 0
vt 0.564173 0.013778 0
vt 0.655226 0.026201 0
vt 0.653173 0.041249 0
vt 0.645398 0.078859 0
vt 0.559536 0.067144 0
vt 0.561431 0.053252 0
vt 0.647294 0.064967 0
vt 0.441092 0.044269 0
vt 0.455776 0.040391 0
vt 0.461449 0.06416 0
vt 0.447893 0.067739 0
vt 0.546933 0.02876 0
vt 0.54741 0.053191 0
vt 0.221798 0.804338 0
vt 0.13457 0.810856 0
vt 0.508695 0.805295 0
vt 0.505806 0.803636 0
vt 0.431631 0.980381 0
vt 0.421565 0.934435 0
vt 0.433624 0.931002 0
vt 0.437664 0.971271 0
vt 0.60903 0.808598 0
vt 0.596416 0.808653 0
vt 0.594342 0.982751 0
vt 0.514338 0.986188 0
vt 0.514099 0.973008 0
vt 0.588843 0.973753 0
vt 0.047456 0.811477 0
vt 0.135555 0.913126 0
vt 0.048641 0.914548 0
vt 0.598946 0.916519 0
vt 0.516429 0.911667 0
vt 0.611514 0.9132 0
vt 0.425721 0.804536 0
vt 0.424202 0.802153 0
vt 0.432176 0.915653 0
vt 0.221587 0.912298 0
vt 0.221825 0.977245 0
vt 0.13618 0.978069 0
vt 0.135717 0.930005 0
vt 0.221556 0.929179 0
vt 0.516042 0.928461 0
vt 0.609141 0.938516 0
vt 0.596719 0.932885 0
vt 0.519493 0.913494 0
vt 0.518546 0.927093 0
vt 0.599178 0.931045 0
vt 0.049647 0.978903 0
vt 0.048971 0.928728 0
vt 0.419745 0.91748 0
vt 0.41356 0.807782 0
vt 0.412568 0.804261 0
vt 0.220223 0.808284 0
vt 0.288211 0.803701 0
vt 0.285728 0.806496 0
vt 0.337369 0.804265 0
vt 0.341427 0.804262 0
vt 0.613526 0.917163 0
vt 0.612166 0.934731 0
vt 0.601191 0.918636 0
vt 0.652806 0.920278 0
vt 0.651589 0.937856 0
vt 0.65739 0.92062 0
vt 0.656173 0.938198 0
vt 0.049467 0.93258 0
vt 0.017637 0.93206 0
vt 0.014908 0.929561 0
vt 0.014697 0.915379 0
vt 0.048954 0.910677 0
vt 0.017304 0.912753 0

# 97 vertex normals
vn 0 0 -1
vn 0 -1 0
vn 1 0 0
vn -1 -0.0021 0
vn 0 1 0
vn 0 0 1
vn 0 0.0368 0.9993
vn 0.9999 0.0172 0
vn 0.0063 0.0292 0.9996
vn 0 0.0368 -0.9993
vn 0.4308 0.9024 0
vn 0.0063 0.0292 -0.9996
vn -0.9999 -0.017 0
vn 0.9996 0.0284 0
vn -1 0 0
vn 0.1072 0 0.9942
vn 0.024 -0.9997 0
vn 0.1072 0 -0.9942
vn 0.024 0.9997 0
vn 0 -1 0.007
vn 0.0011 0.8269 -0.5623
vn 0.0235 0.3751 0.9267
vn 0.0044 0.3447 -0.9387
vn 0.8584 0.5123 -0.0247
vn 0.8595 0.5105 0.0249
vn 0.0007 0.9919 -0.1274
vn 0.0077 0.993 -0.1176
vn 0.0023 0.3503 -0.9366
vn 0.0076 0.993 0.1179
vn -0.0029 -1 0.0034
vn 0.1434 0.9861 0.0844
vn 0.0019 0.9941 0.108
vn 0.0259 0.4438 -0.8957
vn 0.0024 0.7409 0.6717
vn 0.1435 0.986 -0.0843
vn 1 -0.0061 0.0008
vn 0.0078 0.333 0.9429
vn 0.0148 0.2974 0.9546
vn 0.0009 0.9919 0.1274
vn 0.0061 0.4704 0.8825
vn 0.0014 -0.7328 0.6804
vn -0.0049 -0.0123 -0.9999
vn 0.0049 -0.0054 1
vn 0.0171 0.3845 -0.9229
vn 0.0017 0.9937 -0.1117
vn 1 -0.0021 0.0062
vn 0.0116 -0.0515 -0.9986
vn -1 0.0061 -0.0008
vn -1 0.0021 -0.0062
vn 0.0013 -0.7003 -0.7139
vn 1 0.0014 0.0093
vn -0.0118 0.0106 0.9999
vn -1 -0.0014 -0.0093
vn 1 -0.0021 0
vn -0.9999 0.0172 0
vn -0.0063 0.0292 0.9996
vn -0.4308 0.9024 0
vn -0.0063 0.0292 -0.9996
vn 0.9999 -0.017 0
vn -0.9996 0.0284 0
vn -0.1072 0 0.9942
vn -0.024 -0.9997 0
vn -0.1072 0 -0.9942
vn -0.024 0.9997 0
vn -0.0011 0.8269 -0.5623
vn -0.0235 0.3751 0.9267
vn -0.0044 0.3447 -0.9387
vn -0.8584 0.5123 -0.0247
vn -0.8595 0.5105 0.0249
vn -0.0007 0.9919 -0.1274
vn -0.0077 0.993 -0.1176
vn -0.0023 0.3503 -0.9366
vn -0.0076 0.993 0.1179
vn 0.0029 -1 0.0034
vn -0.1434 0.9861 0.0844
vn -0.0019 0.9941 0.108
vn -0.0259 0.4438 -0.8957
vn -0.0024 0.7408 0.6717
vn -0.1435 0.986 -0.0843
vn -1 -0.0061 0.0008
vn -0.0078 0.333 0.9429
vn -0.0148 0.2974 0.9546
vn -0.0009 0.9919 0.1274
vn -0.0061 0.4704 0.8825
vn -0.0014 -0.7328 0.6804
vn 0.0049 -0.0123 -0.9999
vn -0.0049 -0.0054 1
vn -0.0171 0.3845 -0.9229
vn -0.0017 0.9937 -0.1117
vn -1 -0.0021 0.0062
vn -0.0116 -0.0515 -0.9986
vn 1 0.0062 -0.0008
vn 1 0.0021 -0.0062
vn -0.0013 -0.7003 -0.7139
vn -1 0.0014 0.0093
vn 0.0118 0.0106 0.9999
vn 1 -0.0014 -0.0093

# Mesh 'Chest_Cube.002_Chest_Cube.002' with 256 faces
g Chest_Cube.002_Chest_Cube.002
usemtl ChestMaterial
f  1/1/1 2/2/1 3/3/1
f  3/3/1 4/4/1 1/1/1
f  5/5/2 2/2/2 1/1/2
f  1/1/2 6/6/2 5/5/2
f  6/6/3 1/1/3 4/7/3
f  4/7/3 7/8/3 6/6/3
f  8/9/4 9/10/4 10/11/4
f  10/11/4 11/12/4 8/9/4
f  7/13/5 4/4/5 3/3/5
f  3/3/5 12/14/5 7/13/5
f  5/5/6 6/6/6 7/15/6
f  7/15/6 12/16/6 5/5/6
f  13/17/7 14/18/7 10/19/7
f  10/19/7 15/20/7 13/17/7
f  14/18/8 16/21/8 17/22/8
f  17/22/8 18/23/8 14/18/8
f  18/23/9 11/24/9 10/19/9
f  10/19/9 14/18/9 18/23/9
f  19/25/10 9/26/10 16/21/10
f  16/21/10 20/27/10 19/25/10
f  17/22/11 8/28/11 11/24/11
f  11/24/11 18/23/11 17/22/11
f  16/21/12 9/26/12 8/28/12
f  8/28/12 17/22/12 16/21/12
f  13/17/2 15/20/2 19/25/2
f  19/25/2 20/27/2 13/17/2
f  15/20/13 10/11/13 9/10/13
f  9/10/13 19/25/13 15/20/13
f  20/27/14 16/21/14 14/18/14
f  14/18/14 13/17/14 20/27/14
f  21/29/15 22/30/15 23/31/15
f  23/31/15 24/32/15 21/29/15
f  25/33/3 26/34/3 27/35/3
f  27/35/3 28/36/3 25/33/3
f  27/37/16 21/38/16 24/39/16
f  24/39/16 28/40/16 27/37/16
f  28/36/17 24/32/17 23/31/17
f  23/31/17 25/33/17 28/36/17
f  25/33/18 23/31/18 22/41/18
f  22/41/18 26/42/18 25/33/18
f  26/42/19 22/41/19 21/38/19
f  21/38/19 27/37/19 26/42/19
f  29/43/20 30/44/20 31/45/20
f  31/45/20 32/46/20 29/43/20
f  33/47/21 34/48/21 35/49/21
f  35/49/21 36/50/21 33/47/21
f  37/51/22 38/52/22 39/53/22
f  39/53/22 40/54/22 37/51/22
f  41/55/23 42/56/23 43/57/23
f  43/57/23 44/58/23 41/55/23
f  45/59/24 46/60/24 47/61/24
f  47/61/24 48/62/24 45/59/24
f  40/54/25 39/53/25 46/60/25
f  46/60/25 45/59/25 40/54/25
f  34/48/26 41/55/26 44/58/26
f  44/58/26 35/49/26 34/48/26
f  43/63/2 42/64/2 30/44/2
f  30/44/2 29/43/2 43/63/2
f  42/64/2 49/65/2 50/66/2
f  50/66/2 30/44/2 42/64/2
f  51/67/27 52/68/27 41/55/27
f  41/55/27 34/48/27 51/67/27
f  52/68/28 49/69/28 42/56/28
f  42/56/28 41/55/28 52/68/28
f  53/70/3 54/71/3 34/48/3
f  34/48/3 33/47/3 53/70/3
f  55/72/29 51/67/29 34/48/29
f  34/48/29 54/71/29 55/72/29
f  30/44/30 50/66/30 56/73/30
f  56/73/30 31/45/30 30/44/30
f  57/74/2 46/75/2 39/76/2
f  39/76/2 38/77/2 57/74/2
f  50/66/2 57/74/2 38/77/2
f  38/77/2 56/73/2 50/66/2
f  40/54/31 45/59/31 58/78/31
f  58/78/31 37/51/31 40/54/31
f  37/51/32 58/78/32 51/67/32
f  51/67/32 55/72/32 37/51/32
f  48/62/33 47/61/33 59/79/33
f  59/79/33 60/80/33 48/62/33
f  61/81/34 51/67/34 58/78/34
f  58/78/34 62/82/34 61/81/34
f  45/59/35 48/62/35 60/80/35
f  60/80/35 58/78/35 45/59/35
f  62/82/36 58/78/36 60/80/36
f  60/80/36 63/83/36 62/82/36
f  59/84/2 47/85/2 46/75/2
f  46/75/2 57/74/2 59/84/2
f  49/65/2 59/84/2 57/74/2
f  57/74/2 50/66/2 49/65/2
f  54/71/37 31/86/37 56/87/37
f  56/87/37 55/72/37 54/71/37
f  55/72/38 56/87/38 38/52/38
f  38/52/38 37/51/38 55/72/38
f  53/70/39 33/47/39 36/50/39
f  36/50/39 64/88/39 53/70/39
f  64/88/40 65/89/40 66/90/40
f  66/90/40 53/70/40 64/88/40
f  66/90/3 31/86/3 54/71/3
f  54/71/3 53/70/3 66/90/3
f  67/91/3 31/45/3 66/92/3
f  66/92/3 68/93/3 67/91/3
f  69/94/41 70/95/41 67/96/41
f  67/96/41 68/97/41 69/94/41
f  70/98/42 32/46/42 31/45/42
f  31/45/42 67/91/42 70/98/42
f  68/97/43 66/90/43 65/89/43
f  65/89/43 69/94/43 68/97/43
f  63/83/44 71/99/44 72/100/44
f  72/100/44 73/101/44 63/83/44
f  62/82/45 63/83/45 73/101/45
f  73/101/45 61/81/45 62/82/45
f  63/83/46 60/80/46 59/79/46
f  59/79/46 71/99/46 63/83/46
f  74/102/47 72/100/47 71/99/47
f  71/99/47 75/103/47 74/102/47
f  73/101/48 52/68/48 51/67/48
f  51/67/48 61/81/48 73/101/48
f  72/100/49 49/69/49 52/68/49
f  52/68/49 73/101/49 72/100/49
f  75/103/50 76/104/50 77/105/50
f  77/105/50 74/102/50 75/103/50
f  75/106/51 71/107/51 59/84/51
f  59/84/51 76/108/51 75/106/51
f  76/108/52 59/84/52 49/65/52
f  49/65/52 77/109/52 76/108/52
f  77/109/53 49/65/53 72/110/53
f  72/110/53 74/111/53 77/109/53
f  3/3/1 2/2/1 78/112/1
f  78/112/1 79/113/1 3/3/1
f  78/112/2 2/2/2 5/5/2
f  5/5/2 80/114/2 78/112/2
f  79/115/15 78/112/15 80/114/15
f  80/114/15 81/116/15 79/115/15
f  82/117/54 83/118/54 84/119/54
f  84/119/54 85/120/54 82/117/54
f  3/3/5 79/113/5 81/121/5
f  81/121/5 12/14/5 3/3/5
f  81/122/6 80/114/6 5/5/6
f  5/5/6 12/16/6 81/122/6
f  82/123/7 86/124/7 87/125/7
f  87/125/7 88/126/7 82/123/7
f  89/127/55 90/128/55 86/124/55
f  86/124/55 91/129/55 89/127/55
f  82/130/56 85/131/56 91/129/56
f  91/129/56 86/124/56 82/130/56
f  90/128/10 83/132/10 92/133/10
f  92/133/10 93/134/10 90/128/10
f  85/131/57 84/135/57 89/127/57
f  89/127/57 91/129/57 85/131/57
f  84/135/58 83/132/58 90/128/58
f  90/128/58 89/127/58 84/135/58
f  92/133/2 88/126/2 87/125/2
f  87/125/2 93/134/2 92/133/2
f  83/118/59 82/117/59 88/126/59
f  88/126/59 92/133/59 83/118/59
f  86/124/60 90/128/60 93/134/60
f  93/134/60 87/125/60 86/124/60
f  94/136/3 95/137/3 96/138/3
f  96/138/3 97/139/3 94/136/3
f  98/140/15 99/141/15 100/142/15
f  100/142/15 101/143/15 98/140/15
f  97/144/61 96/145/61 98/146/61
f  98/146/61 101/147/61 97/144/61
f  94/136/62 97/139/62 101/143/62
f  101/143/62 100/142/62 94/136/62
f  95/148/63 94/136/63 100/142/63
f  100/142/63 99/149/63 95/148/63
f  96/145/64 95/148/64 99/149/64
f  99/149/64 98/146/64 96/145/64
f  102/150/20 103/151/20 29/43/20
f  29/43/20 32/46/20 102/150/20
f  35/49/65 104/152/65 105/153/65
f  105/153/65 36/50/65 35/49/65
f  106/154/66 107/155/66 108/156/66
f  108/156/66 109/157/66 106/154/66
f  43/57/67 110/158/67 111/159/67
f  111/159/67 44/58/67 43/57/67
f  112/160/68 113/161/68 114/162/68
f  114/162/68 115/163/68 112/160/68
f  113/161/69 106/154/69 109/157/69
f  109/157/69 114/162/69 113/161/69
f  44/58/70 111/159/70 104/152/70
f  104/152/70 35/49/70 44/58/70
f  103/151/2 110/164/2 43/63/2
f  43/63/2 29/43/2 103/151/2
f  116/165/2 117/166/2 110/164/2
f  110/164/2 103/151/2 116/165/2
f  111/159/71 118/167/71 119/168/71
f  119/168/71 104/152/71 111/159/71
f  110/158/72 117/169/72 118/167/72
f  118/167/72 111/159/72 110/158/72
f  104/152/15 120/170/15 121/171/15
f  121/171/15 105/153/15 104/152/15
f  104/152/73 119/168/73 122/172/73
f  122/172/73 120/170/73 104/152/73
f  123/173/74 116/165/74 103/151/74
f  103/151/74 102/150/74 123/173/74
f  106/174/2 113/175/2 124/176/2
f  124/176/2 107/177/2 106/174/2
f  107/177/2 124/176/2 116/165/2
f  116/165/2 123/173/2 107/177/2
f  125/178/75 114/162/75 109/157/75
f  109/157/75 108/156/75 125/178/75
f  119/168/76 125/178/76 108/156/76
f  108/156/76 122/172/76 119/168/76
f  126/179/77 112/160/77 115/163/77
f  115/163/77 127/180/77 126/179/77
f  125/178/78 119/168/78 128/181/78
f  128/181/78 129/182/78 125/178/78
f  127/180/79 115/163/79 114/162/79
f  114/162/79 125/178/79 127/180/79
f  127/180/80 125/178/80 129/182/80
f  129/182/80 130/183/80 127/180/80
f  113/175/2 112/184/2 126/185/2
f  126/185/2 124/176/2 113/175/2
f  124/176/2 126/185/2 117/166/2
f  117/166/2 116/165/2 124/176/2
f  123/186/81 102/187/81 120/170/81
f  120/170/81 122/172/81 123/186/81
f  107/155/82 123/186/82 122/172/82
f  122/172/82 108/156/82 107/155/82
f  36/50/83 105/153/83 121/171/83
f  121/171/83 64/88/83 36/50/83
f  131/188/84 65/89/84 64/88/84
f  64/88/84 121/171/84 131/188/84
f  120/170/15 102/187/15 131/188/15
f  131/188/15 121/171/15 120/170/15
f  131/189/15 102/150/15 132/190/15
f  132/190/15 133/191/15 131/189/15
f  132/192/85 70/95/85 69/94/85
f  69/94/85 133/193/85 132/192/85
f  102/150/86 32/46/86 70/98/86
f  70/98/86 132/190/86 102/150/86
f  65/89/87 131/188/87 133/193/87
f  133/193/87 69/94/87 65/89/87
f  134/194/88 135/195/88 130/183/88
f  130/183/88 136/196/88 134/194/88
f  136/196/89 130/183/89 129/182/89
f  129/182/89 128/181/89 136/196/89
f  126/179/90 127/180/90 130/183/90
f  130/183/90 135/195/90 126/179/90
f  135/195/91 134/194/91 137/197/91
f  137/197/91 138/198/91 135/195/91
f  119/168/92 118/167/92 136/196/92
f  136/196/92 128/181/92 119/168/92
f  118/167/93 117/169/93 134/194/93
f  134/194/93 136/196/93 118/167/93
f  139/199/94 140/200/94 138/198/94
f  138/198/94 137/197/94 139/199/94
f  126/185/95 135/201/95 138/202/95
f  138/202/95 140/203/95 126/185/95
f  117/166/96 126/185/96 140/203/96
f  140/203/96 139/204/96 117/166/96
f  134/205/97 117/166/97 139/204/97
f  139/204/97 137/206/97 134/205/97

